<svg xmlns="http://www.w3.org/2000/svg" viewBox="0 0 57.12 3.23">
  <defs>
    <style>
      .cls-1 {
        fill: #ccd85e;
      }

      .cls-2 {
        fill: #f4eb70;
      }
    </style>
  </defs>
  <title>aguacate</title>
  <g id="Capa_2" data-name="Capa 2">
    <g id="Capa_1-2" data-name="Capa 1">
      <g>
        <path class="cls-1" d="M.29,0H0V.63C0,1.81,9.14,2.79,12.45,2.79s6-1,6-2.14V0h-.29M15.35,0c0,.57-1.3,1-2.9,1S9.55.57,9.55,0"/>
        <path class="cls-2" d="M15.35,0c0,.57-1.3,1-2.9,1S9.55.57,9.55,0H0C0,1.18,9.14,2.13,12.45,2.13s6-.95,6-2.13Z"/>
      </g>
      <g>
        <path class="cls-1" d="M20.49,0h-.21V.46c0,.87,6.73,1.59,9.18,1.59s4.42-.7,4.42-1.57V0h-.21M31.59,0c0,.42-.95.76-2.13.76S27.32.42,27.32,0"/>
        <path class="cls-2" d="M31.59,0c0,.42-.95.76-2.13.76S27.32.42,27.32,0h-7c0,.87,6.73,1.57,9.18,1.57S33.88.87,33.88,0Z"/>
      </g>
      <g>
        <path class="cls-1" d="M36.11,0h-.33V.73c0,1.36,10.56,2.5,14.4,2.5S57.12,2.12,57.12.76V0h-.33M53.53,0c0,.66-1.5,1.2-3.35,1.2S46.83.66,46.83,0"/>
        <path class="cls-2" d="M53.53,0c0,.66-1.5,1.2-3.35,1.2S46.83.66,46.83,0h-11c0,1.37,10.56,2.47,14.4,2.47S57.12,1.37,57.12,0Z"/>
      </g>
    </g>
  </g>
</svg>
