<svg xmlns="http://www.w3.org/2000/svg" viewBox="0 0 58.21 10.97">
  <defs>
    <style>
      .cls-1 {
        fill: #b23046;
      }

      .cls-2 {
        fill: #f7bdcb;
      }
    </style>
  </defs>
  <title>bacon</title>
  <g id="Capa_2" data-name="Capa 2">
    <g id="Capa_1-2" data-name="Capa 1">
      <g>
        <path class="cls-1" d="M43.72.08C37.08.43,35.27,3.74,29,3.72S21,.4,14.4,0C9.14-.26,4.15,1.49,0,3.67v7.21C4.15,8.7,9.14,6.94,14.4,7.24,21,7.61,22.7,10.9,29,10.92s8.11-3.28,14.75-3.64c5-.27,10,1.3,14.49,3.69V3.76A28.13,28.13,0,0,0,43.72.08Z"/>
        <path class="cls-2" d="M43.72,2.07C37.08,2.42,35.27,5.73,29,5.71S21,2.4,14.4,2C9.14,1.73,4.15,3.48,0,5.66V8.89C4.15,6.71,9.14,5,14.4,5.25,21,5.62,22.7,8.91,29,8.93s8.11-3.28,14.75-3.64c5-.27,10,1.3,14.49,3.69V5.75A28.13,28.13,0,0,0,43.72,2.07Z"/>
      </g>
    </g>
  </g>
</svg>
