<svg xmlns="http://www.w3.org/2000/svg" viewBox="0 0 49.83 14.69">
  <defs>
    <style>
      .cls-1 {
        fill: #ba9436;
      }

      .cls-2 {
        fill: #ffed7b;
      }
    </style>
  </defs>
  <title>cebolla</title>
  <g id="Capa_2" data-name="Capa 2">
    <g id="Capa_1-2" data-name="Capa 1">
      <path class="cls-1" d="M11.32,11.25C5.29,11.65.23,9.32,0,6L.12,7.67C.34,11,5.4,13.29,11.43,12.88S22.17,9.49,22,6.21l-.11-1.63C22.06,7.86,17.35,10.85,11.32,11.25Z"/>
      <path class="cls-2" d="M11.34,11.1C5.43,11.5.44,9,0,5.43A2.91,2.91,0,0,0,0,6c.24,3.66,5.33,6.29,11.36,5.89S22.09,8.22,21.84,4.56a1.52,1.52,0,0,0,0-.21C21.54,7.76,17,10.72,11.34,11.1Z"/>
      <path class="cls-1" d="M12.12,8C8.27,8.21,5,6.72,4.89,4.62l.07,1C5.1,7.76,8.34,9.25,12.19,9S19,6.83,18.9,4.73l-.07-1C19,5.79,16,7.69,12.12,8Z"/>
      <path class="cls-2" d="M12.13,7.86c-3.77.25-7-1.36-7.23-3.62,0,.12,0,.25,0,.38.16,2.33,3.41,4,7.25,3.75S19,6,18.83,3.68c0,0,0-.09,0-.13C18.64,5.72,15.77,7.61,12.13,7.86Z"/>
      <path class="cls-1" d="M12.16,4.82C9.15,4.28,7,2.52,7.24.88l-.15.81C6.8,3.33,9,5.1,12,5.63s5.69-.35,6-2l.15-.82C17.84,4.46,15.17,5.36,12.16,4.82Z"/>
      <path class="cls-2" d="M12.19,4.75C9.24,4.22,7.1,2.37,7.32.58c0,.1-.06.19-.08.29C6.92,2.7,9.09,4.61,12.1,5.15s5.71-.51,6-2.33a.37.37,0,0,1,0-.11C17.6,4.35,15,5.26,12.19,4.75Z"/>
      <path class="cls-1" d="M36.18,11.45C30.06,8.9,26.21,4,27.58.61L26.9,2.32c-1.37,3.43,2.48,8.28,8.6,10.84S47.7,15,49.07,11.57l.68-1.71C48.38,13.29,42.31,14,36.18,11.45Z"/>
      <path class="cls-2" d="M36.28,11.31c-6-2.5-9.69-7.51-8.39-11.31a4.2,4.2,0,0,0-.3.6c-1.53,3.82,2.2,9,8.32,11.54s12.32,1.53,13.85-2.29a2.17,2.17,0,0,0,.07-.24C47.92,12.94,42.06,13.73,36.28,11.31Z"/>
      <path class="cls-1" d="M37.49,9.35C33,7.49,30.22,4,31.22,1.45l-.5,1.24c-1,2.51,1.81,6.05,6.27,7.91s8.9,1.34,9.9-1.16l.5-1.25C46.38,10.7,42,11.22,37.49,9.35Z"/>
      <path class="cls-2" d="M37.56,9.25C33.18,7.43,30.49,3.77,31.44,1a3,3,0,0,0-.22.44C30.11,4.22,32.82,8,37.29,9.86s9,1.11,10.1-1.68c0,0,0-.11,0-.17C46.05,10.44,41.78,11,37.56,9.25Z"/>
      <path class="cls-1" d="M37.21,6.7c-2.69-2-4-4.89-2.92-6.41L33.75,1c-1.08,1.52.23,4.39,2.93,6.41s5.76,2.43,6.84.92l.53-.76C43,9.13,39.91,8.72,37.21,6.7Z"/>
      <path class="cls-2" d="M37.28,6.64c-2.65-2-3.86-4.91-2.77-6.61a2.62,2.62,0,0,0-.22.25C33.09,2,34.3,5,37,7s5.86,2.3,7.06.61l.06-.11C42.79,8.9,39.83,8.55,37.28,6.64Z"/>
    </g>
  </g>
</svg>
