<svg xmlns="http://www.w3.org/2000/svg" viewBox="0 0 49.31 15.92">
  <defs>
    <style>
      .cls-1 {
        fill: #898874;
      }

      .cls-2 {
        fill: #dbdab6;
      }
    </style>
  </defs>
  <title>champiñones</title>
  <g id="Capa_2" data-name="Capa 2">
    <g id="Capa_1-2" data-name="Capa 1">
      <g>
        <path class="cls-1" d="M4.28,11.25a2,2,0,0,1,1.57.38l-.57-.44a2,2,0,0,0-1.57-.37.8.8,0,0,0-.55.92c.06.21.6.57.85.72a.85.85,0,0,1-.23-.34A.71.71,0,0,1,4.28,11.25Z"/>
        <path class="cls-1" d="M6.92,7.77a2,2,0,0,0,.79,1.41l-.57-.43a2,2,0,0,1-.79-1.42.8.8,0,0,1,.75-.77c.21,0,.71.42.91.62a.79.79,0,0,0-.39-.13A.72.72,0,0,0,6.92,7.77Z"/>
        <path class="cls-2" d="M1.81,6.66C.09,8.94-.73,11.22.82,12.39a3.46,3.46,0,0,0,3.81-.11l-.26.11a1.19,1.19,0,0,1-1.13-.7.69.69,0,0,1,.49-.85,1.93,1.93,0,0,1,1.55.37L8.92,14l1.88-2.47L7.15,8.74a2,2,0,0,1-.79-1.41.7.7,0,0,1,.69-.7,1.19,1.19,0,0,1,1,.9,1.11,1.11,0,0,1,0,.29,3.43,3.43,0,0,0-.93-3.65C5.51,3,3.54,4.39,1.81,6.66Z"/>
      </g>
      <g>
        <path class="cls-1" d="M17.3,5.2a2,2,0,0,1,.83,1.36L18,5.86a2,2,0,0,0-.84-1.37.8.8,0,0,0-1,.27,2.36,2.36,0,0,0,.1,1.09.82.82,0,0,1,.07-.4A.7.7,0,0,1,17.3,5.2Z"/>
        <path class="cls-1" d="M21.58,4.61a2,2,0,0,0-.44,1.54l-.09-.71a2,2,0,0,1,.43-1.53.8.8,0,0,1,1.07,0A2.59,2.59,0,0,1,22.75,5a.81.81,0,0,0-.18-.36A.7.7,0,0,0,21.58,4.61Z"/>
        <path class="cls-2" d="M18.78.27c-2.79.38-5,1.4-4.7,3.31a3.44,3.44,0,0,0,2.74,2.58l-.26-.1a1.19,1.19,0,0,1-.3-1.29.69.69,0,0,1,.94-.25A1.94,1.94,0,0,1,18,5.86l.62,4.49,3-.42-.61-4.48a2,2,0,0,1,.43-1.54.69.69,0,0,1,1,0,1.2,1.2,0,0,1,.06,1.32,2.67,2.67,0,0,1-.23.18,3.45,3.45,0,0,0,1.9-3.21C23.93.29,21.57-.11,18.78.27Z"/>
      </g>
      <g>
        <path class="cls-1" d="M40.7,4.89a2.27,2.27,0,0,1,0,1.81L41,6a2.25,2.25,0,0,0,0-1.8.9.9,0,0,0-1.16-.33c-.2.11-.44.8-.53,1.11a.86.86,0,0,1,.31-.34A.78.78,0,0,1,40.7,4.89Z"/>
        <path class="cls-1" d="M45.2,6.78A2.25,2.25,0,0,0,43.89,8l.31-.74A2.25,2.25,0,0,1,45.51,6a.89.89,0,0,1,1,.59,2.65,2.65,0,0,1-.42,1.16.77.77,0,0,0-.93-1Z"/>
        <path class="cls-2" d="M45,1C42-.28,39.34-.53,38.5,1.48a3.86,3.86,0,0,0,1.18,4.08,1.65,1.65,0,0,1-.19-.25,1.33,1.33,0,0,1,.44-1.42A.78.78,0,0,1,41,4.18,2.2,2.2,0,0,1,41,6l-2,4.71L42.24,12l2-4.71a2.24,2.24,0,0,1,1.3-1.25.78.78,0,0,1,1,.55,1.33,1.33,0,0,1-.7,1.31,1.47,1.47,0,0,1-.32,0,3.85,3.85,0,0,0,3.68-2C50,3.93,47.9,2.18,45,1Z"/>
      </g>
      <g>
        <path class="cls-1" d="M29.89,11a1.55,1.55,0,0,1,0,1.24l.21-.51a1.56,1.56,0,0,0,0-1.24.6.6,0,0,0-.79-.22c-.14.08-.3.55-.36.76a.66.66,0,0,1,.2-.23A.54.54,0,0,1,29.89,11Z"/>
        <path class="cls-1" d="M33,12.33a1.58,1.58,0,0,0-.9.86l.21-.51a1.52,1.52,0,0,1,.9-.85.62.62,0,0,1,.72.4,1.86,1.86,0,0,1-.29.8.68.68,0,0,0,0-.31A.55.55,0,0,0,33,12.33Z"/>
        <path class="cls-2" d="M32.82,8.34c-2-.85-3.86-1-4.43.36a2.67,2.67,0,0,0,.8,2.8,1,1,0,0,1-.13-.18.92.92,0,0,1,.31-1,.54.54,0,0,1,.72.2,1.51,1.51,0,0,1,0,1.22L28.76,15l2.19.92,1.35-3.23a1.59,1.59,0,0,1,.89-.86.53.53,0,0,1,.65.38.9.9,0,0,1-.48.9,1.17,1.17,0,0,1-.22,0,2.66,2.66,0,0,0,2.53-1.39C36.25,10.38,34.83,9.18,32.82,8.34Z"/>
      </g>
    </g>
  </g>
</svg>
