<svg xmlns="http://www.w3.org/2000/svg" viewBox="0 0 57.53 12.05">
  <defs>
    <style>
      .cls-1 {
        fill: #e2a61f;
      }

      .cls-2 {
        fill: #eabb54;
      }
    </style>
  </defs>
  <title>chaskis</title>
  <g id="Capa_2" data-name="Capa 2">
    <g id="Capa_1-2" data-name="Capa 1">
      <g>
        <path class="cls-1" d="M6.61,9.19a4.79,4.79,0,0,0-3.37-.37A4.79,4.79,0,0,0,.17,10.24l-.16,0,.06.39c.12.72,1.73,1,3.59.74S7,10.27,6.84,9.56l-.07-.39ZM3.53,10.58c-1.25.21-2.7.05-2.78-.43S2,9.06,3.25,8.85,6,8.81,6,9.29,4.78,10.38,3.53,10.58Z"/>
        <path class="cls-2" d="M3.18,8.43C1.31,8.74-.11,9.56,0,10.27s1.72,1,3.59.74S6.89,9.88,6.77,9.17,5.05,8.12,3.18,8.43Zm.35,2.15c-1.25.21-2.7.05-2.78-.43S2,9.06,3.25,8.85,6,8.81,6,9.29,4.78,10.38,3.53,10.58Z"/>
      </g>
      <g>
        <path class="cls-1" d="M57.16,11.23a4.73,4.73,0,0,0-2.48-2.3,4.8,4.8,0,0,0-3.32-.69l-.14-.07L51,8.52c-.33.64.76,1.86,2.44,2.73s3.31,1.05,3.65.41l.18-.35Zm-3.3-.71c-1.12-.59-2.19-1.58-2-2s1.65-.13,2.77.45,2.2,1.57,2,2S55,11.1,53.86,10.52Z"/>
        <path class="cls-2" d="M54.86,8.58c-1.68-.87-3.31-1-3.64-.41S52,10,53.66,10.9s3.32,1,3.65.41S56.54,9.45,54.86,8.58Zm-1,1.94c-1.12-.59-2.19-1.58-2-2s1.65-.13,2.77.45,2.2,1.57,2,2S55,11.1,53.86,10.52Z"/>
      </g>
      <g>
        <path class="cls-1" d="M43.55,8.52a4.76,4.76,0,0,0-3.36.37,4.73,4.73,0,0,0-2.7,2l-.15.06.15.37c.26.67,1.9.64,3.66-.06s3-1.81,2.7-2.48l-.15-.37Zm-2.7,2c-1.18.47-2.63.63-2.81.18s1-1.33,2.16-1.8,2.63-.63,2.81-.18S42,10.07,40.85,10.54Z"/>
        <path class="cls-2" d="M40,8.52c-1.76.7-3,1.81-2.7,2.48s1.91.64,3.67-.06,3-1.81,2.69-2.48S41.8,7.82,40,8.52Zm.81,2c-1.18.47-2.63.63-2.81.18s1-1.33,2.16-1.8,2.63-.63,2.81-.18S42,10.07,40.85,10.54Z"/>
      </g>
      <g>
        <path class="cls-1" d="M30.69,10.74a4.8,4.8,0,0,0-2.82-1.88,4.82,4.82,0,0,0-3.39-.15l-.15-.05L24.2,9c-.22.68,1.06,1.72,2.85,2.3s3.44.51,3.67-.17l.12-.38Zm-3.38-.18c-1.2-.4-2.42-1.21-2.27-1.67s1.61-.39,2.82,0,2.42,1.21,2.27,1.67S28.52,11,27.31,10.56Z"/>
        <path class="cls-2" d="M28,8.48c-1.8-.58-3.44-.51-3.66.18s1.05,1.72,2.85,2.31,3.44.51,3.66-.18S29.79,9.07,28,8.48Zm-.68,2.08c-1.2-.4-2.42-1.21-2.27-1.67s1.61-.39,2.82,0,2.42,1.21,2.27,1.67S28.52,11,27.31,10.56Z"/>
      </g>
      <g>
        <path class="cls-1" d="M18.41,9A4.74,4.74,0,0,0,15,8.84a4.76,4.76,0,0,0-3,1.61l-.16,0,.09.39c.16.7,1.78.92,3.63.5s3.21-1.33,3.05-2L18.57,9Zm-3,1.58c-1.23.29-2.69.22-2.8-.25S13.8,9.15,15,8.87s2.7-.22,2.8.25S16.66,10.29,15.42,10.57Z"/>
        <path class="cls-2" d="M14.94,8.45c-1.85.42-3.21,1.33-3,2s1.79.93,3.63.5,3.21-1.33,3.05-2S16.78,8,14.94,8.45Zm.48,2.12c-1.23.29-2.69.22-2.8-.25S13.8,9.15,15,8.87s2.7-.22,2.8.25S16.66,10.29,15.42,10.57Z"/>
      </g>
      <g>
        <path class="cls-1" d="M6.61,1.21A4.73,4.73,0,0,0,3.25.82,4.7,4.7,0,0,0,.17,2.22L0,2.24l.06.4c.11.71,1.72,1,3.58.76S7,2.29,6.84,1.58l-.06-.4ZM3.53,2.58c-1.26.19-2.71,0-2.78-.45S2,1.05,3.26.85,6,.82,6,1.3,4.78,2.38,3.53,2.58Z"/>
        <path class="cls-2" d="M3.19.42C1.32.72-.11,1.53,0,2.24S1.72,3.3,3.59,3s3.3-1.1,3.19-1.82S5.06.13,3.19.42Zm.34,2.16c-1.26.19-2.71,0-2.78-.45S2,1.05,3.26.85,6,.82,6,1.3,4.78,2.38,3.53,2.58Z"/>
      </g>
      <g>
        <path class="cls-1" d="M57.35,2.69A4.83,4.83,0,0,0,54.5.85a4.77,4.77,0,0,0-3.38-.1L51,.7l-.12.38c-.21.69,1.08,1.7,2.88,2.27s3.45.46,3.66-.23l.12-.38ZM54,2.56c-1.21-.38-2.44-1.17-2.29-1.63s1.6-.42,2.81,0,2.44,1.17,2.29,1.63S55.18,2.93,54,2.56Z"/>
        <path class="cls-2" d="M54.62.47C52.81-.09,51.17,0,51,.7S52,2.4,53.84,3s3.45.46,3.66-.23S56.43,1,54.62.47ZM54,2.56c-1.21-.38-2.44-1.17-2.29-1.63s1.6-.42,2.81,0,2.44,1.17,2.29,1.63S55.18,2.93,54,2.56Z"/>
      </g>
      <g>
        <path class="cls-1" d="M43.66.77a4.82,4.82,0,0,0-3.39.08,4.78,4.78,0,0,0-2.85,1.82l-.16.05.12.38c.2.69,1.84.8,3.65.25s3.11-1.55,2.9-2.24L43.82.72ZM40.79,2.56c-1.21.37-2.67.4-2.81-.06s1.09-1.25,2.3-1.62S43,.48,43.1.94,42,2.19,40.79,2.56Z"/>
        <path class="cls-2" d="M40.16.47C38.35,1,37.05,2,37.26,2.72s1.85.8,3.66.25S44,1.41,43.82.72,42-.08,40.16.47Zm.63,2.09c-1.21.37-2.67.4-2.81-.06s1.09-1.25,2.3-1.62S43,.48,43.1.94,42,2.19,40.79,2.56Z"/>
      </g>
      <g>
        <path class="cls-1" d="M30.68,1.07A4.78,4.78,0,0,0,27.3.83a4.79,4.79,0,0,0-3,1.53l-.16,0,.08.39c.15.71,1.76,1,3.62.61s3.24-1.25,3.1-2L30.84,1Zm-3,1.5c-1.25.25-2.7.15-2.8-.33S26.07,1.11,27.31.86s2.7-.15,2.79.33S28.9,2.32,27.66,2.57Z"/>
        <path class="cls-2" d="M27.23.44c-1.86.37-3.25,1.24-3.11,2s1.77,1,3.62.61S31,1.75,30.84,1,29.08.06,27.23.44Zm.43,2.13c-1.25.25-2.7.15-2.8-.33S26.07,1.11,27.31.86s2.7-.15,2.79.33S28.9,2.32,27.66,2.57Z"/>
      </g>
      <g>
        <path class="cls-1" d="M18.39,2.89a4.73,4.73,0,0,0-2.72-2A4.78,4.78,0,0,0,12.29.56L12.14.51,12,.88c-.26.67,1,1.76,2.74,2.44s3.41.67,3.66,0l.15-.38ZM15,2.54c-1.18-.45-2.36-1.32-2.19-1.77s1.63-.31,2.81.14S18,2.22,17.84,2.68,16.22,3,15,2.54Z"/>
        <path class="cls-2" d="M15.81.5C14-.17,12.4-.17,12.14.51s1,1.76,2.74,2.43,3.41.68,3.67,0S17.58,1.18,15.81.5Zm-.78,2c-1.18-.45-2.36-1.32-2.19-1.77s1.63-.31,2.81.14S18,2.22,17.84,2.68,16.22,3,15,2.54Z"/>
      </g>
      <g>
        <path class="cls-1" d="M25,5.71a4.68,4.68,0,0,0-3.26-.9,4.72,4.72,0,0,0-3.26.91h-.17v.4c0,.72,1.54,1.3,3.43,1.3s3.43-.59,3.43-1.31v-.4Zm-3.26.88C20.42,6.59,19,6.2,19,5.72s1.41-.88,2.68-.88,2.67.39,2.67.87S23,6.59,21.69,6.59Z"/>
        <path class="cls-2" d="M21.69,4.41c-1.9,0-3.43.59-3.43,1.31S19.8,7,21.69,7s3.43-.59,3.43-1.31S23.58,4.41,21.69,4.41Zm0,2.18C20.42,6.59,19,6.2,19,5.72s1.41-.88,2.68-.88,2.67.39,2.67.87S23,6.59,21.69,6.59Z"/>
      </g>
      <g>
        <path class="cls-1" d="M12.29,6.9a4.78,4.78,0,0,0-2.72-2A4.77,4.77,0,0,0,6.2,4.55l-.15-.06-.15.37c-.26.68,1,1.78,2.73,2.46S12,8,12.3,7.33L12.44,7ZM8.93,6.54C7.75,6.09,6.58,5.21,6.75,4.76s1.63-.31,2.81.15,2.35,1.33,2.18,1.78S10.11,7,8.93,6.54Z"/>
        <path class="cls-2" d="M9.71,4.51c-1.76-.68-3.4-.69-3.66,0S7,6.26,8.77,6.94s3.41.69,3.67,0S11.48,5.19,9.71,4.51Zm-.78,2C7.75,6.09,6.58,5.21,6.75,4.76s1.63-.31,2.81.15,2.35,1.33,2.18,1.78S10.11,7,8.93,6.54Z"/>
      </g>
      <g>
        <path class="cls-1" d="M37,6.62a4.75,4.75,0,0,0-2.89-1.77,4.77,4.77,0,0,0-3.38,0l-.16,0-.11.38c-.2.69,1.12,1.68,2.93,2.2s3.46.38,3.66-.31l.11-.39Zm-3.38-.06C32.43,6.21,31.19,5.45,31.32,5s1.6-.46,2.81-.11S36.6,6,36.46,6.46,34.87,6.91,33.65,6.56Z"/>
        <path class="cls-2" d="M34.25,4.47c-1.82-.52-3.45-.38-3.65.31S31.72,6.46,33.53,7s3.46.38,3.66-.32S36.07,5,34.25,4.47Zm-.6,2.09C32.43,6.21,31.19,5.45,31.32,5s1.6-.46,2.81-.11S36.6,6,36.46,6.46,34.87,6.91,33.65,6.56Z"/>
      </g>
      <g>
        <path class="cls-1" d="M50.57,6.26A4.71,4.71,0,0,0,47.5,4.82a4.77,4.77,0,0,0-3.37.36l-.16,0-.06.39c-.12.71,1.29,1.54,3.16,1.86s3.48,0,3.6-.72l.06-.4Zm-3.36.32c-1.25-.21-2.57-.83-2.5-1.31s1.54-.63,2.79-.42,2.57.83,2.49,1.31S48.46,6.79,47.21,6.58Z"/>
        <path class="cls-2" d="M47.57,4.43c-1.87-.31-3.48,0-3.6.72S45.27,6.69,47.14,7s3.47,0,3.59-.72S49.43,4.74,47.57,4.43Zm-.36,2.15c-1.25-.21-2.57-.83-2.5-1.31s1.54-.63,2.79-.42,2.57.83,2.49,1.31S48.46,6.79,47.21,6.58Z"/>
      </g>
    </g>
  </g>
</svg>
