<svg xmlns="http://www.w3.org/2000/svg" viewBox="0 0 51.23 6.85">
  <defs>
    <style>
      .cls-1 {
        fill: #dcd9cf;
      }

      .cls-2 {
        fill: #f4f4f4;
      }

      .cls-3 {
        fill: #fdc85c;
      }
    </style>
  </defs>
  <title>huevo cocido</title>
  <g id="Capa_2" data-name="Capa 2">
    <g id="Capa_1-2" data-name="Capa 1">
      <g>
        <path class="cls-1" d="M50.83,3C49.76,1.77,46.6.91,42.88.91S36,1.77,34.92,3h-.4v.91c0,1.64,3.74,3,8.36,3s8.35-1.33,8.35-3V3Z"/>
        <ellipse class="cls-2" cx="42.88" cy="2.97" rx="8.36" ry="2.97"/>
        <ellipse class="cls-3" cx="44.58" cy="2.97" rx="4.09" ry="1.74"/>
      </g>
      <g>
        <path class="cls-1" d="M16.31,3C15.23,1.77,12.08.91,8.36.91S1.48,1.77.4,3H0v.91c0,1.64,3.74,3,8.36,3s8.35-1.33,8.35-3V3Z"/>
        <ellipse class="cls-2" cx="8.36" cy="2.97" rx="8.36" ry="2.97"/>
        <ellipse class="cls-3" cx="10.06" cy="2.97" rx="4.09" ry="1.74"/>
      </g>
      <g>
        <path class="cls-1" d="M31.34,4.69c-.53-1.06-2.59-2.31-5.22-3.05s-5-.75-6-.12l-.29-.08-.18.64c-.32,1.16,2.06,2.85,5.33,3.77s6.17.72,6.5-.44l.18-.64Z"/>
        <ellipse class="cls-2" cx="25.71" cy="3.1" rx="2.18" ry="6.14" transform="translate(15.75 27.01) rotate(-74.28)"/>
        <ellipse class="cls-3" cx="26.91" cy="3.44" rx="1.28" ry="3.01" transform="translate(16.31 28.42) rotate(-74.28)"/>
      </g>
    </g>
  </g>
</svg>
