<svg xmlns="http://www.w3.org/2000/svg" viewBox="0 0 48.47 14.89">
  <defs>
    <style>
      .cls-1 {
        fill: #f4f4f4;
      }

      .cls-2 {
        fill: #fdc85c;
      }

      .cls-3 {
        fill: #dcd9cf;
      }
    </style>
  </defs>
  <title>Recurso 3</title>
  <g id="Capa_2" data-name="Capa 2">
    <g id="Capa_1-2" data-name="Capa 1">
      <g>
        <g>
          <path class="cls-1" d="M48.37,8.1c0,3.31-4.27,6.43-25.23,6.43C-.47,14.53,0,11.85,0,8.55S9.93,5.3,14.5,5.3c13.91,0,6-5.3,26.73-5.3C49.91,0,48.37,6.55,48.37,8.1Z"/>
          <ellipse class="cls-2" cx="36.73" cy="7.57" rx="8.24" ry="3.5"/>
        </g>
        <path class="cls-3" d="M48.37,7.8c0,3.3-4.27,6.42-25.23,6.42C.55,14.22,0,11.77,0,8.66c0,3.25-.16,6.23,23.17,6.23,21,0,25.2-3.48,25.2-6.79,0-.41.1-1.2.1-2.12C48.45,6.77,48.37,7.42,48.37,7.8Z"/>
      </g>
    </g>
  </g>
</svg>
