<svg xmlns="http://www.w3.org/2000/svg" viewBox="0 0 54.8 3.48">
  <defs>
    <style>
      .cls-1 {
        fill: #a9cc68;
      }

      .cls-2 {
        fill: #65773e;
      }
    </style>
  </defs>
  <title>pepinillo</title>
  <g id="Capa_2" data-name="Capa 2">
    <g id="Capa_1-2" data-name="Capa 1">
      <g>
        <g>
          <rect class="cls-1" width="24.95" height="3.48" rx="1.74" ry="1.74"/>
          <ellipse class="cls-2" cx="2.43" cy="0.84" rx="0.77" ry="0.19"/>
          <ellipse class="cls-2" cx="3.45" cy="2.74" rx="0.77" ry="0.19"/>
          <ellipse class="cls-2" cx="5.09" cy="1.62" rx="0.77" ry="0.19"/>
          <ellipse class="cls-2" cx="11.65" cy="0.84" rx="0.77" ry="0.19"/>
          <ellipse class="cls-2" cx="12.66" cy="2.74" rx="0.77" ry="0.19"/>
          <ellipse class="cls-2" cx="14.3" cy="1.62" rx="0.77" ry="0.19"/>
          <ellipse class="cls-2" cx="16.28" cy="0.84" rx="0.77" ry="0.19"/>
          <ellipse class="cls-2" cx="17.3" cy="2.74" rx="0.77" ry="0.19"/>
          <ellipse class="cls-2" cx="18.93" cy="1.62" rx="0.77" ry="0.19"/>
          <ellipse class="cls-2" cx="20.7" cy="0.84" rx="0.77" ry="0.19"/>
          <ellipse class="cls-2" cx="21.72" cy="2.74" rx="0.77" ry="0.19"/>
          <ellipse class="cls-2" cx="23.36" cy="1.62" rx="0.77" ry="0.19"/>
          <ellipse class="cls-2" cx="7.26" cy="0.84" rx="0.77" ry="0.19"/>
          <ellipse class="cls-2" cx="8.28" cy="2.74" rx="0.77" ry="0.19"/>
          <ellipse class="cls-2" cx="9.92" cy="1.62" rx="0.77" ry="0.19"/>
        </g>
        <rect class="cls-1" x="29.85" width="24.95" height="3.48" rx="1.74" ry="1.74"/>
        <ellipse class="cls-2" cx="32.28" cy="0.84" rx="0.77" ry="0.19"/>
        <ellipse class="cls-2" cx="33.3" cy="2.74" rx="0.77" ry="0.19"/>
        <ellipse class="cls-2" cx="34.94" cy="1.62" rx="0.77" ry="0.19"/>
        <ellipse class="cls-2" cx="41.49" cy="0.84" rx="0.77" ry="0.19"/>
        <ellipse class="cls-2" cx="42.51" cy="2.74" rx="0.77" ry="0.19"/>
        <ellipse class="cls-2" cx="44.15" cy="1.62" rx="0.77" ry="0.19"/>
        <ellipse class="cls-2" cx="46.13" cy="0.84" rx="0.77" ry="0.19"/>
        <ellipse class="cls-2" cx="47.14" cy="2.74" rx="0.77" ry="0.19"/>
        <ellipse class="cls-2" cx="48.78" cy="1.62" rx="0.77" ry="0.19"/>
        <ellipse class="cls-2" cx="50.55" cy="0.84" rx="0.77" ry="0.19"/>
        <ellipse class="cls-2" cx="51.57" cy="2.74" rx="0.77" ry="0.19"/>
        <ellipse class="cls-2" cx="53.21" cy="1.62" rx="0.77" ry="0.19"/>
        <ellipse class="cls-2" cx="37.11" cy="0.84" rx="0.77" ry="0.19"/>
        <ellipse class="cls-2" cx="38.13" cy="2.74" rx="0.77" ry="0.19"/>
        <ellipse class="cls-2" cx="39.77" cy="1.62" rx="0.77" ry="0.19"/>
      </g>
    </g>
  </g>
</svg>
