<svg xmlns="http://www.w3.org/2000/svg" viewBox="0 0 49.46 13.09">
  <defs>
    <style>
      .cls-1 {
        fill: #a42121;
      }

      .cls-2 {
        fill: #f0a0a0;
      }

      .cls-3 {
        fill: #e62d2d;
      }
    </style>
  </defs>
  <title>pimiento rojo</title>
  <g id="Capa_2" data-name="Capa 2">
    <g id="Capa_1-2" data-name="Capa 1">
      <g>
        <path class="cls-1" d="M11.1,7.26A7.45,7.45,0,0,0,6.38,5.85C3.3,5.85.81,7.19.81,8.83A1.55,1.55,0,0,0,.85,9c.2-1.55,2.59-2.77,5.53-2.77a7.44,7.44,0,0,1,4.73,1.42Z"/>
        <path class="cls-1" d="M14.4,7.26a7.45,7.45,0,0,1,4.72-1.41c3.08,0,5.57,1.34,5.57,3a1.55,1.55,0,0,1,0,.21c-.2-1.55-2.59-2.77-5.53-2.77A7.39,7.39,0,0,0,14.4,7.69Z"/>
        <path class="cls-1" d="M6.37,12.28C3,12.28.29,10.71.05,8.73c0,.1,0,.19,0,.28,0,2.12,2.85,4.08,6.37,4.08s6.37-2,6.37-4.08c0-.09,0-.18-.05-.28C12.45,10.71,9.73,12.28,6.37,12.28Z"/>
        <path class="cls-1" d="M19.15,12.28c-3.35,0-6.07-1.57-6.31-3.55,0,.1-.05.19-.05.28,0,2.12,2.85,4.08,6.36,4.08s6.36-2,6.36-4.08c0-.09,0-.18,0-.28C25.23,10.71,22.51,12.28,19.15,12.28Z"/>
        <path class="cls-2" d="M11.1,7.29V6.22a8,8,0,0,1-1.59-.45c-.69,0-.87.06-.92.35A5.81,5.81,0,0,1,11.1,7.29Z"/>
        <path class="cls-2" d="M14.4,7.34A5.79,5.79,0,0,1,17,6.11c-.05-.29-.23-.34-.94-.34a7.88,7.88,0,0,1-1.66.46Z"/>
        <path class="cls-3" d="M19.09,5.39A10.6,10.6,0,0,0,18,5.45a2.61,2.61,0,0,0,1.22-2c0-1.9-2.86-3.44-6.38-3.44S6.41,1.54,6.41,3.44a2.62,2.62,0,0,0,1.23,2,12,12,0,0,0-1.22-.07C2.87,5.39,0,6.94,0,8.85s2.87,3.47,6.42,3.47c3.27,0,5.93-1.32,6.34-3,.41,1.69,3.07,3,6.33,3,3.55,0,6.42-1.55,6.42-3.46S22.64,5.39,19.09,5.39Zm0,6.42c-3,0-5.48-1.32-5.49-3H12c0,1.65-2.48,3-5.53,3S.89,10.5.89,8.85s2.48-3,5.53-3a9.36,9.36,0,0,1,2.17.25c.05-.29.23-.35.92-.35C8.2,5.23,7.35,4.4,7.35,3.44,7.35,1.82,9.78.5,12.79.5s5.44,1.32,5.44,2.94c0,1-.86,1.79-2.17,2.33.71,0,.89.05.94.34a9.92,9.92,0,0,1,2.09-.22c3,0,5.5,1.32,5.5,3S22.13,11.81,19.09,11.81Z"/>
        <path class="cls-2" d="M12.11,7.94l1.45.16,0,.75a6.53,6.53,0,0,1-.92.16A3.14,3.14,0,0,1,12,8.85Z"/>
        <path class="cls-1" d="M12.79,1.18c2.89,0,5.22,1,5.43,2.49a1.43,1.43,0,0,0,0-.22C18.26,1.83,15.81.5,12.79.5s-5.47,1.33-5.47,3a1.43,1.43,0,0,0,0,.22C7.57,2.14,9.91,1.18,12.79,1.18Z"/>
      </g>
      <g>
        <path class="cls-1" d="M38.64,7.74a5.66,5.66,0,0,0-3.55-1c-2.3,0-4.18,1-4.18,2.24,0,.05,0,.1,0,.15C31.1,7.92,32.89,7,35.09,7a5.56,5.56,0,0,1,3.55,1.07Z"/>
        <path class="cls-1" d="M41.11,7.74a5.66,5.66,0,0,1,3.55-1c2.31,0,4.18,1,4.18,2.24a.8.8,0,0,1,0,.15C48.66,7.92,46.87,7,44.66,7a5.56,5.56,0,0,0-3.55,1.07Z"/>
        <path class="cls-1" d="M35.09,11.51c-2.52,0-4.57-1.17-4.75-2.66a1.52,1.52,0,0,0,0,.21c0,1.59,2.14,3.06,4.78,3.06s4.78-1.47,4.78-3.06a1.55,1.55,0,0,0,0-.21C39.65,10.34,37.61,11.51,35.09,11.51Z"/>
        <path class="cls-1" d="M44.68,11.51c-2.51,0-4.56-1.17-4.74-2.66a1.52,1.52,0,0,0,0,.21c0,1.59,2.14,3.06,4.77,3.06s4.78-1.47,4.78-3.06a1.55,1.55,0,0,0,0-.21C49.24,10.34,47.2,11.51,44.68,11.51Z"/>
        <path class="cls-2" d="M38.64,7.77V7a5.18,5.18,0,0,1-1.19-.34c-.53,0-.66,0-.7.27A4.38,4.38,0,0,1,38.64,7.77Z"/>
        <path class="cls-2" d="M41.11,7.8a4.42,4.42,0,0,1,2-.92c0-.21-.18-.25-.71-.26A5.08,5.08,0,0,1,41.11,7Z"/>
        <path class="cls-3" d="M44.64,6.34c-.29,0-.58,0-.86,0a1.94,1.94,0,0,0,.92-1.5c0-1.43-2.15-2.58-4.79-2.58s-4.79,1.15-4.79,2.58A1.94,1.94,0,0,0,36,6.39a9.12,9.12,0,0,0-.92,0c-2.66,0-4.81,1.17-4.81,2.6s2.15,2.6,4.81,2.6c2.46,0,4.46-1,4.76-2.27.31,1.28,2.31,2.27,4.76,2.27,2.66,0,4.82-1.17,4.82-2.6S47.3,6.34,44.64,6.34Zm0,4.82c-2.27,0-4.12-1-4.12-2.22H39.27c0,1.24-1.85,2.24-4.15,2.24S31,10.18,31,8.94,32.83,6.7,35.12,6.7a7,7,0,0,1,1.63.19c0-.22.17-.26.7-.27-1-.4-1.63-1-1.63-1.74,0-1.22,1.83-2.21,4.09-2.21S44,3.66,44,4.88c0,.72-.64,1.34-1.63,1.74.53,0,.67,0,.71.26a7.06,7.06,0,0,1,1.57-.17c2.28,0,4.12,1,4.12,2.23S46.92,11.16,44.64,11.16Z"/>
        <path class="cls-2" d="M39.4,8.25l1.08.13,0,.56a4.77,4.77,0,0,1-.7.12,2.46,2.46,0,0,1-.55-.12Z"/>
        <path class="cls-1" d="M39.91,3.18c2.16,0,3.92.72,4.07,1.87a.9.9,0,0,0,0-.16c0-1.22-1.83-2.22-4.1-2.22s-4.11,1-4.11,2.22c0,.05,0,.11,0,.16C36,3.9,37.74,3.18,39.91,3.18Z"/>
      </g>
    </g>
  </g>
</svg>
