<svg xmlns="http://www.w3.org/2000/svg" viewBox="0 0 49.67 15.51">
  <defs>
    <style>
      .cls-1 {
        fill: #8ca335;
      }

      .cls-2 {
        fill: #cddc7b;
      }

      .cls-3 {
        fill: #a3c740;
      }
    </style>
  </defs>
  <title>pimiento verde</title>
  <g id="Capa_2" data-name="Capa 2">
    <g id="Capa_1-2" data-name="Capa 1">
      <g>
        <path class="cls-1" d="M9.37,6.12a6.36,6.36,0,0,0-4-1.18C2.79,4.94.68,6.06.68,7.45a1.16,1.16,0,0,0,0,.18C.89,6.32,2.9,5.29,5.38,5.29a6.26,6.26,0,0,1,4,1.2Z"/>
        <path class="cls-1" d="M12.15,6.12a6.33,6.33,0,0,1,4-1.18c2.6,0,4.7,1.12,4.7,2.51,0,.06,0,.12,0,.18-.18-1.31-2.19-2.34-4.67-2.34a6.26,6.26,0,0,0-4,1.2Z"/>
        <path class="cls-1" d="M5.37,10.36C2.54,10.36.24,9,0,7.37A1.85,1.85,0,0,0,0,7.6C0,9.39,2.41,11,5.37,11s5.38-1.65,5.38-3.44a1.85,1.85,0,0,0,0-.23C10.5,9,8.21,10.36,5.37,10.36Z"/>
        <path class="cls-1" d="M16.16,10.36c-2.83,0-5.13-1.32-5.33-3a1.85,1.85,0,0,0,0,.23c0,1.79,2.4,3.44,5.37,3.44s5.36-1.65,5.36-3.44c0-.08,0-.15,0-.23C21.28,9,19,10.36,16.16,10.36Z"/>
        <path class="cls-2" d="M9.37,6.15v-.9A6.38,6.38,0,0,1,8,4.86c-.59,0-.74,0-.78.3A5,5,0,0,1,9.37,6.15Z"/>
        <path class="cls-2" d="M12.14,6.19a4.85,4.85,0,0,1,2.2-1c0-.25-.19-.29-.79-.3a6.88,6.88,0,0,1-1.41.4Z"/>
        <path class="cls-3" d="M16.11,4.54a7.5,7.5,0,0,0-1,.06,2.21,2.21,0,0,0,1-1.7c0-1.6-2.41-2.9-5.38-2.9S5.41,1.3,5.41,2.9a2.17,2.17,0,0,0,1,1.7c-.34,0-.68,0-1,0C2.42,4.55,0,5.86,0,7.47s2.42,2.92,5.42,2.92c2.75,0,5-1.11,5.34-2.55.35,1.44,2.6,2.55,5.35,2.55,3,0,5.41-1.31,5.41-2.93S19.1,4.54,16.11,4.54Zm0,5.42c-2.56,0-4.63-1.11-4.63-2.49h-1.4C10.08,8.86,8,10,5.42,10S.75,8.86.75,7.47,2.84,5,5.42,5a8.2,8.2,0,0,1,1.83.21c0-.25.19-.29.78-.3C6.92,4.42,6.2,3.71,6.2,2.9,6.2,1.53,8.25.43,10.79.43s4.59,1.1,4.59,2.47c0,.81-.72,1.52-1.83,2,.6,0,.75,0,.79.3A7.69,7.69,0,0,1,16.11,5c2.56,0,4.63,1.11,4.63,2.49S18.67,10,16.11,10Z"/>
        <path class="cls-2" d="M10.22,6.7l1.22.13,0,.64a5.81,5.81,0,0,1-.78.13,2.78,2.78,0,0,1-.62-.13Z"/>
        <path class="cls-1" d="M10.79,1c2.43,0,4.41.81,4.58,2.1a1.29,1.29,0,0,0,0-.19c0-1.37-2.07-2.48-4.62-2.48S6.18,1.54,6.18,2.91a1.25,1.25,0,0,0,0,.19C6.39,1.81,8.36,1,10.79,1Z"/>
      </g>
      <g>
        <path class="cls-1" d="M34.48,9.36a8,8,0,0,0-5-1.47c-3.24,0-5.87,1.4-5.87,3.14a2.07,2.07,0,0,0,0,.22c.22-1.63,2.73-2.93,5.83-2.93a7.83,7.83,0,0,1,5,1.5Z"/>
        <path class="cls-1" d="M38,9.36a8,8,0,0,1,5-1.47c3.25,0,5.87,1.4,5.87,3.14a2.07,2.07,0,0,1,0,.22C48.55,9.62,46,8.32,42.93,8.32a7.79,7.79,0,0,0-5,1.5Z"/>
        <path class="cls-1" d="M29.48,14.66c-3.54,0-6.41-1.65-6.67-3.74,0,.1,0,.2,0,.3,0,2.23,3,4.29,6.71,4.29s6.72-2.06,6.72-4.29c0-.1,0-.2-.05-.3C35.9,13,33,14.66,29.48,14.66Z"/>
        <path class="cls-1" d="M43,14.66c-3.54,0-6.41-1.65-6.66-3.74a1.57,1.57,0,0,0-.05.3c0,2.23,3,4.29,6.71,4.29s6.7-2.06,6.7-4.29c0-.1,0-.2,0-.3C49.37,13,46.5,14.66,43,14.66Z"/>
        <path class="cls-2" d="M34.48,9.4V8.27a7.89,7.89,0,0,1-1.68-.48c-.74,0-.93.07-1,.37A6.27,6.27,0,0,1,34.48,9.4Z"/>
        <path class="cls-2" d="M38,9.45A6.08,6.08,0,0,1,40.7,8.16c-.05-.31-.25-.36-1-.37A7.46,7.46,0,0,1,38,8.28Z"/>
        <path class="cls-3" d="M42.9,7.39a11.73,11.73,0,0,0-1.2.07A2.74,2.74,0,0,0,43,5.34c0-2-3-3.63-6.73-3.63s-6.72,1.63-6.72,3.63a2.74,2.74,0,0,0,1.3,2.13,10.91,10.91,0,0,0-1.29-.07c-3.74,0-6.77,1.63-6.77,3.65s3,3.65,6.77,3.65c3.44,0,6.25-1.39,6.68-3.18.43,1.79,3.24,3.17,6.68,3.17,3.74,0,6.77-1.63,6.77-3.65S46.64,7.39,42.9,7.39Zm0,6.78c-3.19,0-5.78-1.4-5.79-3.12H35.36c0,1.73-2.6,3.14-5.82,3.14s-5.83-1.41-5.83-3.14,2.61-3.14,5.83-3.14a10.28,10.28,0,0,1,2.28.25c.05-.3.24-.36,1-.37-1.38-.56-2.29-1.44-2.29-2.45,0-1.71,2.57-3.1,5.74-3.1S42,3.63,42,5.34c0,1-.91,1.89-2.3,2.45.75,0,.95.06,1,.37a9.63,9.63,0,0,1,2.2-.24c3.2,0,5.8,1.4,5.8,3.12S46.1,14.17,42.9,14.17Z"/>
        <path class="cls-2" d="M35.54,10.08l1.52.18,0,.79a6.66,6.66,0,0,1-1,.17,3.34,3.34,0,0,1-.78-.17Z"/>
        <path class="cls-1" d="M36.26,3c3,0,5.5,1,5.72,2.62a1.85,1.85,0,0,0,0-.23c0-1.71-2.58-3.11-5.76-3.11s-5.77,1.4-5.77,3.11a1.85,1.85,0,0,0,0,.23C30.75,4,33.21,3,36.26,3Z"/>
      </g>
    </g>
  </g>
</svg>
