<svg xmlns="http://www.w3.org/2000/svg" viewBox="0 0 50.69 9.62">
  <defs>
    <style>
      .cls-1 {
        fill: #e8442d;
      }

      .cls-2 {
        fill: #f1877e;
      }

      .cls-3 {
        fill: #ffebc0;
      }
    </style>
  </defs>
  <title>Recurso 6</title>
  <g id="Capa_2" data-name="Capa 2">
    <g id="Capa_1-2" data-name="Capa 1">
      <g>
        <path class="cls-1" d="M22.49,4.1c-1.49-1.65-5.84-2.85-11-2.85S2,2.45.55,4.1H0V5.35C0,7.61,5.16,9.44,11.52,9.44S23,7.61,23,5.35V4.1Z"/>
        <g>
          <ellipse class="cls-2" cx="11.52" cy="4.1" rx="11.52" ry="4.1"/>
          <path class="cls-1" d="M15,1.44c0,.68-1.53,2.23-3.43,2.23S8.08,2.12,8.08,1.44,9.62.59,11.52.59,15,.77,15,1.44Z"/>
          <path class="cls-1" d="M4.11,2.89c1.9,0,6.27.55,6.27,1.23S6,5.34,4.11,5.34,1.7,4.79,1.7,4.12,2.22,2.89,4.11,2.89Z"/>
          <path class="cls-1" d="M8.08,6.79c0-.68,1.54-2.23,3.44-2.23S15,6.11,15,6.79s-1.53.85-3.43.85S8.08,7.46,8.08,6.79Z"/>
          <path class="cls-1" d="M18.92,5.34c-1.89,0-6.27-.55-6.27-1.22S17,2.89,18.92,2.89s2.42.55,2.42,1.23S20.82,5.34,18.92,5.34Z"/>
          <path class="cls-3" d="M9.43,3.92A2.82,2.82,0,0,1,8.36,4c-.26,0-.39-.15-.27-.25a1,1,0,0,1,.69-.1C9.05,3.65,9.55,3.82,9.43,3.92Z"/>
          <path class="cls-3" d="M9.44,4.36a2.61,2.61,0,0,0-1.07-.05c-.27,0-.39.15-.28.25a1.05,1.05,0,0,0,.7.1C9.06,4.62,9.55,4.45,9.44,4.36Z"/>
          <path class="cls-3" d="M13.61,4.37a2.75,2.75,0,0,1,1.06,0c.27,0,.4.15.28.25a1.11,1.11,0,0,1-.7.1C14,4.64,13.49,4.47,13.61,4.37Z"/>
          <path class="cls-3" d="M13.6,3.87a2.82,2.82,0,0,0,1.07,0c.27,0,.39-.15.28-.25a1.12,1.12,0,0,0-.7-.1C14,3.6,13.49,3.77,13.6,3.87Z"/>
          <path class="cls-3" d="M12.21,3.34A.21.21,0,0,1,12.09,3a1.05,1.05,0,0,1,.7-.1c.27,0,.39.15.27.25A1.56,1.56,0,0,1,12.21,3.34Z"/>
          <path class="cls-3" d="M10.78,3.33A.21.21,0,0,0,10.9,3a1,1,0,0,0-.69-.1c-.27,0-.4.15-.28.25A1.56,1.56,0,0,0,10.78,3.33Z"/>
          <path class="cls-3" d="M10.9,4.89a.21.21,0,0,1,.12.38,1,1,0,0,1-.69.1c-.27,0-.4-.15-.28-.25A1.56,1.56,0,0,1,10.9,4.89Z"/>
          <path class="cls-3" d="M12.3,4.9a.21.21,0,0,0-.12.38,1,1,0,0,0,.69.1c.27,0,.4-.15.28-.25A1.56,1.56,0,0,0,12.3,4.9Z"/>
          <ellipse class="cls-2" cx="11.52" cy="4.1" rx="1.86" ry="0.66"/>
        </g>
      </g>
      <g>
        <path class="cls-1" d="M50.14,4.27c-1.49-1.65-5.83-2.84-11-2.84s-9.48,1.19-11,2.84h-.55V5.52c0,2.27,5.16,4.1,11.52,4.1s11.52-1.83,11.52-4.1V4.27Z"/>
        <g>
          <ellipse class="cls-2" cx="39.17" cy="4.27" rx="11.52" ry="4.1"/>
          <path class="cls-1" d="M42.61,1.62c0,.68-1.54,2.23-3.44,2.23S35.74,2.3,35.74,1.62,37.27.76,39.17.76,42.61,1,42.61,1.62Z"/>
          <path class="cls-1" d="M31.77,3.07c1.89,0,6.27.55,6.27,1.22s-4.38,1.22-6.27,1.22S29.35,5,29.35,4.29,29.87,3.07,31.77,3.07Z"/>
          <path class="cls-1" d="M35.74,7c0-.67,1.53-2.23,3.43-2.23S42.61,6.29,42.61,7s-1.54.86-3.44.86S35.74,7.64,35.74,7Z"/>
          <path class="cls-1" d="M46.58,5.51c-1.9,0-6.27-.54-6.27-1.22s4.37-1.22,6.27-1.22S49,3.62,49,4.29,48.47,5.51,46.58,5.51Z"/>
          <path class="cls-3" d="M37.08,4.09a2.55,2.55,0,0,1-1.06,0c-.27,0-.4-.16-.28-.25a1,1,0,0,1,.7-.1C36.7,3.83,37.2,4,37.08,4.09Z"/>
          <path class="cls-3" d="M37.09,4.53a2.82,2.82,0,0,0-1.07,0c-.27,0-.39.15-.27.25a1.07,1.07,0,0,0,.69.1C36.71,4.8,37.2,4.63,37.09,4.53Z"/>
          <path class="cls-3" d="M41.26,4.55a2.82,2.82,0,0,1,1.07,0c.27,0,.39.15.27.25a1.07,1.07,0,0,1-.69.1C41.64,4.81,41.14,4.65,41.26,4.55Z"/>
          <path class="cls-3" d="M41.25,4a2.61,2.61,0,0,0,1.07,0c.27,0,.39-.16.28-.25a1.05,1.05,0,0,0-.7-.1C41.63,3.78,41.14,4,41.25,4Z"/>
          <path class="cls-3" d="M39.86,3.51a.21.21,0,0,1-.12-.38,1.06,1.06,0,0,1,.7-.09c.27,0,.39.15.28.24A1.54,1.54,0,0,1,39.86,3.51Z"/>
          <path class="cls-3" d="M38.43,3.5a.21.21,0,0,0,.12-.38A1,1,0,0,0,37.86,3c-.27,0-.4.15-.28.24A1.53,1.53,0,0,0,38.43,3.5Z"/>
          <path class="cls-3" d="M38.56,5.07a.21.21,0,0,1,.12.38,1.05,1.05,0,0,1-.7.1c-.27,0-.39-.15-.28-.25A1.62,1.62,0,0,1,38.56,5.07Z"/>
          <path class="cls-3" d="M40,5.08a.21.21,0,0,0-.12.38,1.05,1.05,0,0,0,.7.1c.27,0,.39-.15.27-.25A1.56,1.56,0,0,0,40,5.08Z"/>
          <ellipse class="cls-2" cx="39.17" cy="4.27" rx="1.86" ry="0.66"/>
        </g>
      </g>
    </g>
  </g>
</svg>
